:version 1.10
:name ASF
:units
  mass 1
  length 1
  angle deg
:documentation
  ASF file generated by Kaydara
:root
  axis xyz
  order  tx ty tz rx ry rz
  position 0 0 0
  orientation 0 0 0
:bonedata
  begin
    id 1
    name RightUpLegDummy
    direction -1 2.30186e-007 8.31532e-007
    length 4.04083
    axis 0 0 0 xyz
  end
  begin
    id 2
    name RightUpLeg
    direction -0.000919234 -0.999985 0.00544864
    length 17.4221
    axis -3.80308 -0.00076134 -0.0523649 xyz
    dof rx ry rz
  end
  begin
    id 3
    name RightLeg
    direction -0.000919271 -0.999984 -0.00555045
    length 17.1239
    axis 4.00314 0.0181274 -0.183583 xyz
    dof rx ry rz
  end
  begin
    id 4
    name RightFoot
    direction -2.57843e-005 -4.04509e-007 1
    length 6.72091
    axis 8.18909e-005 -0.122003 -0.403008 xyz
    dof rx ry rz
  end
  begin
    id 5
    name RightToes
    direction 0.00116825 -0.014069 0.9999
    length 3.85082
    axis 0.000514414 0.540638 -0.356797 xyz
    dof rx ry rz
  end
  begin
    id 6
    name SpineDummy
    direction 0.0168869 0.966876 -0.254689
    length 6.99894
    axis 0 0 0 xyz
  end
  begin
    id 7
    name Spine
    direction -0.0132008 0.999903 0.00446247
    length 11.1999
    axis -0.00148109 0.00725429 0.756411 xyz
    dof rx ry rz
  end
  begin
    id 8
    name Spine1
    direction 0 0 0
    length 0
    axis -0.000934958 0.0245693 1.46543 xyz
    dof rx ry rz
  end
  begin
    id 9
    name HEadDummy
    direction -0.0255732 0.999672 0.00128215
    length 3.43865
    axis -0.000934958 0.0245693 1.46543 xyz
  end
  begin
    id 10
    name HEad
    direction -0.0472656 0.980052 0.19304
    length 5.12695
    axis -0.000934954 0.0245693 1.46543 xyz
    dof rx ry rz
  end
  begin
    id 11
    name LeftShoulder1Dummy
    direction 0.953098 0.301717 -0.023914
    length 3.68488
    axis -0.000934958 0.0245693 1.46543 xyz
  end
  begin
    id 12
    name LeftShoulder1
    direction 0.962466 0.271167 0.0112566
    length 3.13809
    axis -0.000934958 0.0245693 1.46543 xyz
    dof rx ry rz
  end
  begin
    id 13
    name LeftArm
    direction 0.999943 0.00455037 -0.00961766
    length 11.3419
    axis -23.1648 0.685459 1.22814 xyz
    dof rx ry rz
  end
  begin
    id 14
    name LeftForeArm
    direction 0.999332 0.0131969 0.0340885
    length 8.70632
    axis -9.90633 0.618216 0.0826942 xyz
    dof rx ry rz
  end
  begin
    id 15
    name LeftHand
    direction 0.994373 -0.0366703 0.0993905
    length 5.32135
    axis 0.00675269 0.680415 0.445699 xyz
    dof rx ry rz
  end
  begin
    id 16
    name RightShoulderDummy
    direction -0.967298 0.252589 -0.0230903
    length 3.68488
    axis -0.000934958 0.0245693 1.46543 xyz
  end
  begin
    id 17
    name RightShoulder
    direction -0.975062 0.221602 0.0120823
    length 3.13809
    axis 0.216257 0.0246515 1.45863 xyz
    dof rx ry rz
  end
  begin
    id 18
    name RightArm
    direction -0.99886 -0.00851186 -0.0469687
    length 10.3947
    axis -23.196 0.23503 -0.532632 xyz
    dof rx ry rz
  end
  begin
    id 19
    name RightForeArm
    direction -0.99909 0.00114866 0.0426317
    length 8.68355
    axis -9.91764 -0.134943 0.610517 xyz
    dof rx ry rz
  end
  begin
    id 20
    name RightHand
    direction -0.992888 -0.0489538 0.10852
    length 5.28593
    axis -0.00275396 -0.197403 0.246414 xyz
    dof rx ry rz
  end
  begin
    id 21
    name LeftUpLegDummy
    direction 1 -2.30186e-007 -8.31532e-007
    length 4.04083
    axis 0 0 0 xyz
  end
  begin
    id 22
    name LeftUpLeg
    direction -0.000920097 -1 2.79241e-006
    length 17.4221
    axis -3.48782 0.00143434 -0.0532288 xyz
    dof rx ry rz
  end
  begin
    id 23
    name LeftLeg
    direction -0.000920097 -1 2.7912e-006
    length 17.1239
    axis 3.68162 -0.00806512 -0.0529896 xyz
    dof rx ry rz
  end
  begin
    id 24
    name LeftFoot
    direction -2.57845e-005 -3.987e-007 1
    length 6.72091
    axis 3.02372e-005 -0.00147829 -0.214229 xyz
    dof rx ry rz
  end
  begin
    id 25
    name LeftToes
    direction 0.00813577 -0.00488255 0.999955
    length 3.85048
    axis 3.89895e-005 -0.0014783 -0.214229 xyz
    dof rx ry rz
  end
:hierarchy
  begin
    root RightUpLegDummy SpineDummy LeftUpLegDummy
    RightUpLegDummy RightUpLeg
    RightUpLeg RightLeg
    RightLeg RightFoot
    RightFoot RightToes
    SpineDummy Spine
    Spine Spine1
    Spine1 HEadDummy LeftShoulder1Dummy RightShoulderDummy
    HEadDummy HEad
    LeftShoulder1Dummy LeftShoulder1
    LeftShoulder1 LeftArm
    LeftArm LeftForeArm
    LeftForeArm LeftHand
    RightShoulderDummy RightShoulder
    RightShoulder RightArm
    RightArm RightForeArm
    RightForeArm RightHand
    LeftUpLegDummy LeftUpLeg
    LeftUpLeg LeftLeg
    LeftLeg LeftFoot
    LeftFoot LeftToes
  end

:SAMPLES-PER-SECOND 30
:FULLY-SPECIFIED
:DEGREES
157
root  -32.0736 34.467 6.51316 -141.258 87.037 -141.836
RightUpLeg  7.12648 -7.55843 -5.41458
RightLeg  3.34798 -1.38715 0.00898211
RightFoot  4.04568 0.0165866 0.0642349
RightToes  -29.5065 -0.135518 -0.243271
Spine  -4.45169 -0.0370629 1.23009
Spine1  -8.74565 0.223939 3.31322
HEad  -100.56 -3.50512 4.12254
LeftShoulder1  -1.94126e-019 -3.10601e-018 -2.51263e-017
LeftArm  15.8667 32.3624 -70.6055
LeftForeArm  107.309 -76.4581 -126.041
LeftHand  -0.0298617 4.52998 -0.669471
RightShoulder  -4.96962e-017 0 -2.36833e-017
RightArm  10.5097 -45.9625 58.5118
RightForeArm  172.28 69.8499 153.849
RightHand  0.00267422 -3.29604 1.18919
LeftUpLeg  5.65727 3.47674 -0.136023
LeftLeg  12.9799 20.1039 3.2192
LeftFoot  -5.98718 -0.115695 -2.05048
LeftToes  -9.06405 1.83942e-006 5.51297e-008
158
root  -32.2259 34.4886 6.55268 -130.9 87.4109 -131.498
RightUpLeg  6.6461 -6.9282 -5.14475
RightLeg  3.46329 -1.45777 0.00648671
RightFoot  4.30007 0.0180496 0.0537273
RightToes  -29.6578 -0.135962 -0.243717
Spine  -4.04487 -0.154321 1.33929
Spine1  -7.9431 -0.0214096 3.50182
HEad  -99.6088 -3.72268 3.94026
LeftShoulder1  -1.94126e-019 -3.10601e-018 -2.51263e-017
LeftArm  15.8822 31.9889 -70.9969
LeftForeArm  105.197 -76.7341 -124.23
LeftHand  -0.0325081 4.75536 -0.27743
RightShoulder  -4.96962e-017 0 -2.36833e-017
RightArm  11.1774 -45.3875 58.1089
RightForeArm  172.52 70.5194 152.96
RightHand  0.0111251 -2.74894 1.1791
LeftUpLeg  5.22372 4.12323 0.0582974
LeftLeg  13.4322 20.0277 3.36619
LeftFoot  -5.95227 -0.113995 -2.0308
LeftToes  -9.14407 1.83942e-006 5.51297e-008
159
root  -32.4352 34.5251 6.62079 -115.81 87.6775 -116.755
RightUpLeg  5.79466 -6.24967 -4.74794
RightLeg  3.46322 -1.55687 0.00687816
RightFoot  4.65864 0.0202733 0.0375231
RightToes  -29.3822 -0.136284 -0.24401
Spine  -3.68587 -0.244603 1.41875
Spine1  -7.23562 -0.213244 3.64928
HEad  -98.6016 -3.83359 3.89879
LeftShoulder1  -1.94126e-019 -3.10601e-018 -2.51263e-017
LeftArm  15.5143 31.6959 -71.3931
LeftForeArm  103.895 -76.9173 -122.99
LeftHand  -0.0318875 4.93853 0.710892
RightShoulder  -4.96962e-017 0 -2.36833e-017
RightArm  10.9445 -44.8674 58.332
RightForeArm  170.631 71.1937 151.711
RightHand  -0.00386401 -3.11487 0.692822
LeftUpLeg  4.46983 4.43425 0.197164
LeftLeg  13.7092 20.3268 3.51302
LeftFoot  -5.74188 -0.107887 -1.98949
LeftToes  -9.2557 1.83942e-006 5.51297e-008
160
root  -32.7145 34.5602 6.70296 -96.7386 87.8407 -98.4641
RightUpLeg  4.33089 -5.79939 -4.42161
RightLeg  3.59693 -1.33749 0.00291629
RightFoot  4.94381 0.0212253 0.0477153
RightToes  -29.1998 -0.136466 -0.244128
Spine  -3.41706 -0.260601 1.38799
Spine1  -6.70775 -0.320706 3.69687
HEad  -97.5708 -3.97684 3.91056
LeftShoulder1  -1.94126e-019 -3.10601e-018 -2.51263e-017
LeftArm  15.0964 31.4306 -71.5702
LeftForeArm  103.684 -76.9591 -122.73
LeftHand  -0.031707 4.73219 -0.0880653
RightShoulder  -4.96962e-017 0 -2.36833e-017
RightArm  10.0957 -44.4681 59.0648
RightForeArm  170.055 71.5054 151.146
RightHand  -0.0122286 -3.40058 0.384698
LeftUpLeg  3.25116 4.83832 0.249287
LeftLeg  13.8189 20.6135 3.59998
LeftFoot  -5.44607 -0.0985715 -1.9107
LeftToes  -9.47968 1.83942e-006 5.51297e-008
161
root  -33.011 34.6023 6.80501 -74.7888 87.7842 -77.2689
RightUpLeg  2.97248 -5.29684 -4.11129
RightLeg  3.49885 -1.08915 0.00437092
RightFoot  5.37011 0.0222861 0.0596634
RightToes  -29.1069 -0.136492 -0.244046
Spine  -3.08365 -0.277039 1.36843
Spine1  -6.04594 -0.308212 3.52941
HEad  -96.1262 -4.32895 3.88243
LeftShoulder1  -1.94126e-019 -3.10601e-018 -2.51263e-017
LeftArm  14.4077 31.1602 -71.6368
LeftForeArm  104.258 -76.8523 -123.438
LeftHand  -0.0319094 4.73403 -0.105054
RightShoulder  -4.96962e-017 0 -2.36833e-017
RightArm  9.07099 -44.004 60.1282
RightForeArm  170.729 71.4835 151.279
RightHand  -0.0154722 -3.50331 0.284354
LeftUpLeg  2.16403 5.3697 0.300913
LeftLeg  13.6602 20.8553 3.58224
LeftFoot  -4.9851 -0.0835905 -1.75852
LeftToes  -9.90455 1.83942e-006 5.51297e-008
162
root  -33.3441 34.6456 6.92034 -57.4542 87.5508 -60.7228
RightUpLeg  1.58718 -4.74203 -3.81961
RightLeg  3.33593 -0.961654 0.00665897
RightFoot  5.80825 0.0240407 0.0637269
RightToes  -28.9406 -0.136342 -0.243743
Spine  -2.67825 -0.276667 1.24619
Spine1  -5.24501 -0.327567 3.26993
HEad  -95.1288 -4.35436 4.03577
LeftShoulder1  -1.94126e-019 -3.10601e-018 -2.51263e-017
LeftArm  13.6906 30.7312 -71.5283
LeftForeArm  105.145 -76.6905 -124.478
LeftHand  -0.0313678 4.70068 0.0696554
RightShoulder  -4.96962e-017 0 -2.36833e-017
RightArm  8.11516 -43.4169 61.2786
RightForeArm  170.999 71.3145 151.587
RightHand  -0.0169338 -3.56054 0.155472
LeftUpLeg  0.995947 5.55679 0.263417
LeftLeg  13.468 21.3161 3.58592
LeftFoot  -4.44389 -0.067989 -1.59059
LeftToes  -10.3158 1.83942e-006 5.51297e-008
163
root  -33.708 34.6885 7.04758 -43.1902 87.2124 -47.3335
RightUpLeg  0.0119972 -4.38722 -3.59047
RightLeg  3.28653 -0.667255 0.00542217
RightFoot  6.21916 0.0244779 0.0873611
RightToes  -28.8379 -0.136001 -0.243193
Spine  -2.27457 -0.241465 1.05872
Spine1  -4.44761 -0.276711 2.87776
HEad  -93.9212 -4.40645 4.03609
LeftShoulder1  -1.94126e-019 -3.10601e-018 -2.51263e-017
LeftArm  13.1727 30.1078 -71.1961
LeftForeArm  105.81 -76.577 -125.198
LeftHand  -0.0298886 4.66977 0.563362
RightShoulder  -4.96962e-017 0 -2.36833e-017
RightArm  7.39367 -42.7916 62.4296
RightForeArm  170.874 71.2248 151.713
RightHand  -0.0160461 -3.46236 0.167944
LeftUpLeg  -0.290063 5.99066 0.213396
LeftLeg  13.2092 21.5485 3.5257
LeftFoot  -3.8166 -0.0506867 -1.35962
LeftToes  -10.8624 1.83942e-006 5.51297e-008
164
root  -34.0955 34.7385 7.19197 -32.653 86.7571 -37.915
RightUpLeg  -1.85616 -4.11627 -3.28741
RightLeg  3.26908 -0.352272 0.00332883
RightFoot  6.73002 0.0244624 0.116925
RightToes  -28.636 -0.134642 -0.242375
Spine  -1.88975 -0.139104 0.84034
Spine1  -3.68891 -0.0882355 2.42069
HEad  -92.4404 -4.58056 3.83964
LeftShoulder1  -1.94126e-019 -3.10601e-018 -2.51263e-017
LeftArm  12.8482 29.3797 -70.7922
LeftForeArm  106.259 -76.5555 -125.422
LeftHand  -0.0306201 4.61049 0.414024
RightShoulder  -4.96962e-017 0 -2.36833e-017
RightArm  7.19661 -42.2258 63.296
RightForeArm  170.882 71.2182 151.73
RightHand  -0.014417 -3.35023 0.0983506
LeftUpLeg  -1.82444 6.81521 0.246796
LeftLeg  12.8485 21.3711 3.36362
LeftFoot  -3.06767 -0.0323756 -1.04748
LeftToes  -11.6402 1.83942e-006 5.51297e-008
